<svg width="42" height="42" viewBox="0 0 42 42" fill="none" xmlns="http://www.w3.org/2000/svg">
<path d="M36.1981 4.64941H6.73899C6.03053 4.64941 5.45816 5.22179 5.45816 5.93025V35.3894C5.45816 36.0978 6.03053 36.6702 6.73899 36.6702H36.1981C36.9066 36.6702 37.4789 36.0978 37.4789 35.3894V5.93025C37.4789 5.22179 36.9066 4.64941 36.1981 4.64941ZM14.9563 31.9351H10.2052V16.6532H14.9563V31.9351ZM12.5828 14.5638C12.0381 14.5638 11.5057 14.4023 11.0529 14.0998C10.6 13.7972 10.247 13.3671 10.0386 12.8639C9.83019 12.3607 9.77565 11.807 9.88191 11.2728C9.98817 10.7386 10.2504 10.248 10.6356 9.86284C11.0207 9.47772 11.5114 9.21544 12.0455 9.10919C12.5797 9.00293 13.1334 9.05747 13.6366 9.26589C14.1398 9.47432 14.5699 9.82728 14.8725 10.2801C15.1751 10.733 15.3366 11.2654 15.3366 11.8101C15.3326 13.331 14.0998 14.5638 12.5828 14.5638ZM32.7439 31.9351H27.9968V24.5023C27.9968 22.7291 27.9648 20.4517 25.5272 20.4517C23.0576 20.4517 22.6773 22.3809 22.6773 24.3742V31.9351H17.9343V16.6532H22.4892V18.7426H22.5533C23.1857 17.5418 24.7347 16.273 27.0482 16.273C31.8593 16.273 32.7439 19.439 32.7439 23.5537V31.9351Z" fill="white"/>
</svg>
