<svg width="46" height="47" viewBox="0 0 46 47" fill="none" xmlns="http://www.w3.org/2000/svg">
<path d="M23 27.0003C27.2282 27.0003 30.6667 23.5618 30.6667 19.3337C30.6667 15.1055 27.2282 11.667 23 11.667C18.7718 11.667 15.3333 15.1055 15.3333 19.3337C15.3333 23.5618 18.7718 27.0003 23 27.0003ZM23 15.5003C25.1141 15.5003 26.8333 17.2196 26.8333 19.3337C26.8333 21.4477 25.1141 23.167 23 23.167C20.8859 23.167 19.1667 21.4477 19.1667 19.3337C19.1667 17.2196 20.8859 15.5003 23 15.5003Z" fill="white"/>
<path d="M21.8884 41.9768C22.2128 42.2085 22.6014 42.333 23.0001 42.333C23.3987 42.333 23.7873 42.2085 24.1117 41.9768C24.6944 41.5648 38.389 31.6767 38.3334 19.3333C38.3334 10.8789 31.4545 4 23.0001 4C14.5457 4 7.66673 10.8789 7.66673 19.3238C7.61115 31.6767 21.3057 41.5648 21.8884 41.9768ZM23.0001 7.83333C29.3423 7.83333 34.5001 12.9911 34.5001 19.3429C34.5403 27.8491 26.0897 35.487 23.0001 37.9921C19.9123 35.4851 11.4598 27.8453 11.5001 19.3333C11.5001 12.9911 16.6578 7.83333 23.0001 7.83333Z" fill="white"/>
</svg>
